<svg id="Layer_1" data-name="Layer 1" xmlns="http://www.w3.org/2000/svg" viewBox="0 0 503.3 442.84"><defs><style>.cls-1{fill:#55382a;}.cls-2{fill:#ee5734;}.cls-3{fill:#fdcb2f;}.cls-4{fill:#2cae2b;}.cls-5{fill:#01a9ea;}.cls-6{fill:#cbcbca;}.cls-7{fill:#2dad2b;}.cls-8{fill:#03a7e6;}.cls-9{fill:#c9c8c7;}.cls-10{fill:#fefefe;}.cls-11{fill:#fdc92f;}.cls-12{fill:#56392a;}.cls-13{fill:#f9f8f8;}</style></defs><title>bower-logo</title><path class="cls-1" d="M341.23,499.62c8.25,14.24,16.84,28.29,23.71,43.29a32.08,32.08,0,0,1,.1,28c-2,4.44-5.17,7.79-10.05,9a2.25,2.25,0,0,0-2.11,2.09c-3.23,15.25-14.17,21.57-28.25,24.23a34.2,34.2,0,0,1-12.91.05c-1.64-.31-3.11-0.45-4.45,1.18-11,13.3-24.85,13.12-39.49,8.08-3.58-1.23-6.15-1.79-9.89.27-10,5.48-27.51-1.46-32.1-12.57-5-12.12-9.41-24.5-14.08-36.76-0.24-.62-0.58-1.19-1.1-2.27A42.69,42.69,0,0,1,186,586.81c-13.09,4.93-25.22,1.91-36.69-5C130,570,115.4,553.38,102.94,534.91c-31.36-46.48-48-97.79-47.62-154,0.39-53.13,16.7-100.84,53-140.55,32.4-35.47,72.61-56.71,120.31-63.07,29.12-3.88,57.24-.9,82.43,15.89,22.28,14.86,37,35.56,45.5,60.79,1.1,3.29,2.44,4.76,6,5.33a86.85,86.85,0,0,1,14.38,4c2.47,0.86,3.61.77,5-1.82,19.28-36.33,49.82-57.13,90-64.12a66.73,66.73,0,0,1,30.94,1.84,14,14,0,0,1-1.39,2C483,219.76,473.53,242.21,470.85,268a98.53,98.53,0,0,1-8.43,30.67C451.1,323.48,431,336,404.71,340a159.22,159.22,0,0,1-18.92,1.28c-3,.09-4.78-0.78-5.59-3.62a1.84,1.84,0,0,0-.18-0.46c-2-3.3-1.88-9.61-5.34-9.86-5.39-.38-11.35,2.2-15.65,5.58-3.62,2.85-3.83,8.62-5.1,13.19-0.48,1.74,2.25,1.37,3.49,1.53,11.88,1.54,23.81,2.78,35.68,4.41,41.53,5.72,83,11.84,123.25,24.09A177.55,177.55,0,0,1,536.8,384c16.31,7.26,22.9,19.19,21.66,39.91S545,456.36,524.3,459c-1.91.24-3.52,0.07-3.13,3,1,7.12-2.35,12.62-7.54,17-13,10.92-28.31,13.42-44.56,11.51C465,490,462.73,490,460,494.06c-5.76,8.43-15.33,10.77-24.91,11.82-12.59,1.38-24.56-.83-35.34-7.87-1.93-1.26-2.9-1.75-4.58.72-3.68,5.41-9.68,6.72-15.76,7.27a69.3,69.3,0,0,1-37.24-7.17,1,1,0,0,0-1.53-.58C339.88,498.93,341,499.17,341.23,499.62ZM329,308c14.56,1.94,28.39-.78,41.94-6.13,8.12-3.21,16.7-2.44,25.18-1.42,8.31,1,16.36,3.31,25.7,5.92-4.35-5-8.64-7.86-12.77-10.86-18.93-13.73-39.58-23.21-63.2-25.13-2.39-.2-5.12-1.26-6.93,1.29-7.29,10.26-11.76,21.48-11.25,34.31-1.18,7.86,1.2,15.12,3.74,22.35,0.87,2.49,2.32,1.6,3.89.72,11-6.22,22.25-12,34.57-15.35,2.51-.68,2.43-2.34,2.13-4.22-0.42-2.68-2.16-1.27-3.41-1-5.83,1.34-11.58,3.2-17.48,4C343.33,313.61,335.47,313.85,329,308Zm122.84-79.19,0.69,0.76c-14.93,14.65-25.37,32.39-35,50.71-1.18,2.25-1.39,3.52,1,5.21a145.46,145.46,0,0,1,20.19,17.06c2.85,2.88,4.17,2.58,6.18-.7,6.54-10.71,9.49-22.6,12-34.67,4.11-19.56,5.88-40,20.56-55.57a2.38,2.38,0,0,0-.58-0.5,6.26,6.26,0,0,0-1.49-.09c-36.69,4.85-63.22,24.37-81.16,56.28-1.2,2.14-.47,3.19,1.57,4.19a94.62,94.62,0,0,1,10,5.57c2.53,1.65,3.65.94,4.8-1.55a114.42,114.42,0,0,1,12-20.1C430.7,244.68,439.34,234.62,451.84,228.82ZM323,385l0,0c-2.53.21-4,2.3-5.92,3.5-23.92,14.82-50.57,18.42-78,19.23,0.65-1.32,1.84-1.42,3-1.69a166,166,0,0,0,29.7-10.12c20.5-9.25,38.57-21.59,51.69-40.36,2.18-3.12,2.4-5.42.56-8.91-9-17.1-12.81-35.19-9-54.44a67,67,0,0,1,15.84-31.79c1.77-2,3.93-3.7,2.32-7.31-11-24.48-28.43-42.06-54-50.83-17.76-6.09-36-5.25-54.28-2.39-41.54,6.5-76.11,26-102.88,58.07-38.43,46-51.21,99.43-41.84,158.29,2.08,13.1,5.58,26,11.82,37.87,0.49,1.4.86,2.85,1.47,4.19a169.81,169.81,0,0,0,40.4,55.18c31.17,28.32,67.75,43.73,109.94,45.94,29.84,1.56,54.33-8.84,71.9-32.92,10.06-13.79,18.65-28.91,13.07-47.44,13.08,10.84,28,13.83,44.29,9.92,4.44-1.06,8.55-3.1,10-8,0.61-2.1,1.63-2.16,3.3-1.39,1.35,0.63,2.75,1.18,4.16,1.68,12.88,4.58,25.84,6.54,38.68.12,4.41-2.2,8.21-5.56,7.91-11.14-0.23-4.14,1.16-4.73,4.88-3.8,10.28,2.56,20.39,2.34,30-2.78a18.23,18.23,0,0,0,9.81-12.51c0.81-3.54-1.54-6.53-2.22-10.29a52.64,52.64,0,0,0,16.8,1.11c8.39-.62,15.79-3.71,21.61-10,1.88-2,2.75-3.49-1.28-4.37-21.88-4.76-43.77-9.36-65.87-13-12.54-3.23-25.36-5.1-38.06-7.56-13.3-2.58-26.64-4.93-40-7.39,7.87-1.09,15.57.62,23.35,0.52,17.12,1.6,34.25,3.15,51.37,4.8,12,1.16,24.07,2.36,36.09,3.69C495.79,410,508,411.48,520.13,413c3.86,0.47,4.28-1,2.82-4.2-2.61-5.74-6.47-10-12.69-11.81-5.73-1.63-11.49-3.18-17.24-4.77-1.77-.44-3.54-0.88-5.32-1.31-25.23-6.05-50.75-10.64-76.36-14.71-22.67-3.6-45.41-6.71-68.33-8.24-1.88-.13-3.9-0.78-5.4,1.4-3.8,5.51-8.78,10-13.61,14.53Zm77.53-69.58c-1.16-8.6-1.16-8.6-9.85-9.56a19.3,19.3,0,0,1-2-.29c-2.88-.62-3.56.81-3.21,3.33a80.39,80.39,0,0,0,3.9,15.4c0.82,2.36,2.29,2.87,4.54,2.72,12.24-.8,23.92-3.6,34.72-9.61a1.83,1.83,0,0,0,1.28-2c-5.17-2.58-10.85-3.85-16.46-5.21C408.31,309,402.27,305.82,400.51,315.43Z" transform="translate(-55.31 -175.81)"/><path class="cls-2" d="M92,454.11c-6.24-11.9-9.74-24.77-11.82-37.87C70.77,357.39,83.55,304,122,258c26.77-32.05,61.33-51.57,102.88-58.07,18.25-2.86,36.52-3.7,54.28,2.39,25.56,8.76,43,26.35,54,50.83,1.62,3.61-.55,5.31-2.32,7.31A67,67,0,0,0,315,292.2c-3.79,19.25,0,37.35,9,54.44,1.84,3.49,1.62,5.79-.56,8.91-13.12,18.77-31.19,31.11-51.69,40.36A166,166,0,0,1,242,406c-1.12.27-2.31,0.37-3,1.69,27.44-.81,54.09-4.41,78-19.23,1.94-1.2,3.39-3.29,5.92-3.5,0.3,1.8-.64,3.22-1.45,4.66a175.59,175.59,0,0,1-13.38,21c-13.28,17.28-29.16,31.39-49.3,40.25-23.4,10.29-47.41,10.1-71.64,3.64-5.72-1.53-10.94-3.18-16,1.67-1.56,1.49-4.15,2-6.37,2.69C140,466.11,115.67,464.73,92,454.11ZM250.12,245.93c-22.92-1.29-44.43,19.2-44.18,43.71,0.25,24.28,19.93,44.32,44,44.28,23.9,0,43.86-20,44-43.9C294.08,265.23,273.65,245.25,250.12,245.93Z" transform="translate(-55.31 -175.81)"/><path class="cls-3" d="M92,454.11c23.71,10.62,48,12,72.91,4.8,2.22-.64,4.81-1.2,6.37-2.69,5.06-4.85,10.27-3.19,16-1.67,24.22,6.46,48.23,6.65,71.64-3.64,20.14-8.86,36-23,49.3-40.25a175.59,175.59,0,0,0,13.38-21c0.81-1.44,1.75-2.86,1.45-4.66l0,0,1-1.15c4.83-4.57,9.81-9,13.61-14.53,1.5-2.18,3.52-1.53,5.4-1.4,22.92,1.52,45.66,4.63,68.33,8.24,25.61,4.07,51.13,8.66,76.36,14.71l5.32,1.31a11.15,11.15,0,0,1-2.29.74c-31.47,3.13-63,5.89-94.59,7.23-7.77.1-15.47-1.61-23.35-.52,13.32,2.45,26.67,4.81,40,7.39,12.7,2.46,25.51,4.33,38.06,7.56-0.05,5.86-3.7,9.45-8.1,12.39-7.11,4.75-14.86,6.44-23.31,4.4-1.32-.32-3.73-1.77-3.2,1.57,1.45,9.19-4,14.44-10.94,18.32-12,6.67-24.4,8-36.88.94-4.27,16-23.69,20.05-46.75,9.57a109.17,109.17,0,0,0,7.09,17.28c5.58,18.53-3,33.65-13.07,47.44-17.57,24.08-42.06,34.48-71.9,32.92-42.19-2.21-78.76-17.62-109.94-45.94a169.81,169.81,0,0,1-40.4-55.18C92.82,457,92.45,455.51,92,454.11Zm229.56,6.17a0.31,0.31,0,1,0,.21.31A0.72,0.72,0,0,0,321.52,460.28Z" transform="translate(-55.31 -175.81)"/><path class="cls-4" d="M328.75,479.06a109.17,109.17,0,0,1-7.09-17.28c23.06,10.49,42.48,6.48,46.75-9.57,12.48,7.07,24.89,5.73,36.88-.94,7-3.88,12.39-9.12,10.94-18.32-0.53-3.35,1.88-1.89,3.2-1.57,8.45,2,16.2.34,23.31-4.4,4.4-2.94,8-6.53,8.1-12.39,22.09,3.65,44,8.26,65.87,13,4,0.88,3.17,2.34,1.28,4.37-5.83,6.27-13.22,9.37-21.61,10a52.64,52.64,0,0,1-16.8-1.11c0.68,3.76,3,6.75,2.22,10.29A18.23,18.23,0,0,1,472,463.66c-9.64,5.12-19.75,5.33-30,2.78-3.72-.93-5.11-0.34-4.88,3.8,0.3,5.58-3.49,8.94-7.91,11.14-12.84,6.41-25.8,4.46-38.68-.12-1.41-.5-2.8-1.05-4.16-1.68-1.67-.78-2.68-0.71-3.3,1.39-1.44,4.92-5.55,7-10,8C356.7,492.89,341.82,489.9,328.75,479.06Z" transform="translate(-55.31 -175.81)"/><path class="cls-5" d="M451.84,228.82c-12.51,5.8-21.14,15.86-29.13,26.59a114.42,114.42,0,0,0-12,20.1c-1.15,2.48-2.27,3.2-4.8,1.55a94.62,94.62,0,0,0-10-5.57c-2-1-2.77-2.05-1.57-4.19,17.94-31.91,44.47-51.43,81.16-56.28a6.26,6.26,0,0,1,1.49.09,2.38,2.38,0,0,1,.58.5c-14.68,15.58-16.44,36-20.56,55.57-2.54,12.07-5.49,24-12,34.67-2,3.28-3.32,3.58-6.18.7a145.46,145.46,0,0,0-20.19-17.06c-2.43-1.69-2.22-3-1-5.21,9.61-18.32,20-36.06,35-50.71,0.34-.42,1.39-0.62.84-1.29C452.94,227.76,452.21,228.19,451.84,228.82Z" transform="translate(-55.31 -175.81)"/><path class="cls-6" d="M327.66,306c-0.51-12.83,4-24,11.25-34.31,1.82-2.56,4.54-1.49,6.93-1.29,23.63,1.93,44.27,11.41,63.2,25.13,4.13,3,8.42,5.85,12.77,10.86-9.33-2.61-17.38-4.92-25.7-5.92-8.48-1-17.06-1.79-25.18,1.42C357.39,307.23,343.57,310,329,308A1.77,1.77,0,0,0,327.66,306Z" transform="translate(-55.31 -175.81)"/><path class="cls-7" d="M396.15,400.16c31.61-1.34,63.11-4.1,94.59-7.23a11.15,11.15,0,0,0,2.29-.74c5.75,1.59,11.51,3.14,17.24,4.77,6.22,1.77,10.08,6.07,12.69,11.81,1.45,3.2,1,4.67-2.82,4.2-12.17-1.48-24.34-3-36.52-4.31-12-1.32-24.05-2.53-36.09-3.69C430.4,403.32,413.27,401.76,396.15,400.16Z" transform="translate(-55.31 -175.81)"/><path class="cls-8" d="M400.51,315.43c1.76-9.61,7.79-6.47,12.94-5.22,5.61,1.36,11.29,2.63,16.46,5.21a1.83,1.83,0,0,1-1.28,2c-10.79,6-22.47,8.81-34.72,9.61-2.24.15-3.72-.36-4.54-2.72a80.39,80.39,0,0,1-3.9-15.4c-0.35-2.52.34-3.95,3.21-3.33a19.3,19.3,0,0,0,2,.29C399.36,306.84,399.36,306.83,400.51,315.43Z" transform="translate(-55.31 -175.81)"/><path class="cls-9" d="M327.66,306a1.77,1.77,0,0,1,1.35,2c6.46,5.84,14.33,5.6,22.08,4.52,5.9-.82,11.65-2.68,17.48-4,1.25-.29,3-1.7,3.41,1,0.3,1.89.38,3.54-2.13,4.22-12.31,3.32-23.54,9.13-34.57,15.35-1.56.88-3,1.77-3.89-.72C328.86,321.11,326.47,313.85,327.66,306Z" transform="translate(-55.31 -175.81)"/><path class="cls-10" d="M341.23,499.62c-0.26-.45-1.35-0.69-0.61-1.37a1,1,0,0,1,1.53.58Z" transform="translate(-55.31 -175.81)"/><path class="cls-2" d="M324,383.87L323,385Z" transform="translate(-55.31 -175.81)"/><path class="cls-11" d="M250.12,245.93c23.53-.67,44,19.31,43.83,44.1-0.12,23.86-20.09,43.86-44,43.9-24.1,0-43.79-20-44-44.28C205.69,265.13,227.2,244.64,250.12,245.93Zm26,44c0.06-15-11.66-26.9-26.32-26.82-14.33.08-26.16,11.94-26.43,26.48-0.26,14.24,11.8,26.32,26.32,26.37A26,26,0,0,0,276.14,290Z" transform="translate(-55.31 -175.81)"/><path class="cls-4" d="M321.52,460.28a0.31,0.31,0,1,1-.24.28A0.72,0.72,0,0,1,321.52,460.28Z" transform="translate(-55.31 -175.81)"/><path class="cls-1" d="M451.84,228.82c0.37-.63,1.1-1.06,1.52-0.54,0.55,0.67-.5.88-0.84,1.29Z" transform="translate(-55.31 -175.81)"/><path class="cls-12" d="M276.14,290a26,26,0,0,1-26.43,26c-14.52,0-26.58-12.13-26.32-26.37,0.27-14.55,12.1-26.4,26.43-26.48C264.48,263.07,276.21,275,276.14,290ZM250,268.44c-4.22,0-8.24.76-11.75,3.28-4.85,3.47-5,8.8-.32,12.45,6.12,4.8,18.36,4.69,24.26-.23,4.34-3.61,4.16-8.79-.45-12.13C258.22,269.27,254.2,268.48,250,268.44Z" transform="translate(-55.31 -175.81)"/><path class="cls-13" d="M250,268.44c4.22,0,8.24.83,11.73,3.36,4.61,3.34,4.79,8.52.45,12.13-5.9,4.92-18.14,5-24.26.23-4.65-3.65-4.52-9,.32-12.45C241.73,269.2,245.76,268.45,250,268.44Z" transform="translate(-55.31 -175.81)"/></svg>