<svg id="Layer_1" data-name="Layer 1" xmlns="http://www.w3.org/2000/svg" viewBox="0 0 181.57 70.56"><defs><style>.cls-1{fill:#ca3837;}.cls-2{fill:#fefefe;}</style></defs><title>Microsoft.VisualStudio.Services.Icons.Default</title><path class="cls-1" d="M306.5,432.25H266a64,64,0,0,1,.05-7.11c0.32-2.89-.76-3.48-3.51-3.46-15.6.14-31.2,0.07-46.8,0.07q0-28.84,0-57.68c0-1.69.15-2.38,2.21-2.38q88.58,0.11,177.15,0c2.06,0,2.21.69,2.21,2.38q-0.08,28.84,0,57.68-40.09,0-80.17,0c-3.44,0-8-1.55-10,.71C305.38,424.43,306.58,428.9,306.5,432.25Zm50.06-60.75c-9.24,0-18.48,0-27.72,0-1.91,0-2.91.19-2.89,2.55,0.12,11.61.1,23.23,0,34.84,0,2,.55,2.6,2.53,2.55,5-.12,10-0.18,15,0,2.47,0.1,2.87-.87,2.82-3-0.12-6.24,0-12.49,0-18.73,0-7.9,0-7.77,7.8-7.74,2.55,0,2.77,1,2.74,3.09-0.1,7,0,14,0,21,0,6.1,0,5.93,6.08,6.07,3.13,0.08,3.79-1.16,3.72-4-0.17-6.49-.05-13-0.05-19.48,0-6.7,0-6.54,6.6-6.68,2.76-.06,3.27.89,3.21,3.4-0.17,6.36-.06,12.74-0.06,19.11,0,7.68,0,7.54,7.51,7.64,2.9,0,3.6-1,3.57-3.68-0.11-11.24-.14-22.48,0-33.72,0-2.77-1-3.26-3.45-3.22C374.79,371.58,365.67,371.5,356.56,371.5Zm-60.11,0c-5.49,0-11,.15-16.47-0.06-2.71-.1-3.61.51-3.56,3.43,0.19,11.73,0,23.46.11,35.18,0,3.82-1.67,8.91.75,11.08,2.1,1.89,7.1.59,10.83,0.61,7.67,0,7.78,0,7.83-7.54,0-2.39.8-2.94,3-2.87,4.86,0.15,9.73,0,14.6.09,2.1,0.06,2.76-.57,2.75-2.71-0.1-11.48-.12-23,0-34.44,0-2.47-.87-2.85-3-2.8C307.68,371.59,302.06,371.5,296.45,371.5Zm-50.77,0c-5.87,0-11.75.06-17.62,0-1.88,0-2.62.4-2.6,2.46q0.14,17.44,0,34.87c0,1.88.4,2.67,2.47,2.61q7.68-.2,15.37,0c2.11,0.05,2.83-.59,2.79-2.74-0.12-6.5,0-13,0-19.5,0-7.31,0-7.17,7.27-7.24,2.66,0,3,1,3,3.25-0.12,6.87,0,13.75,0,20.62,0,6.35,0,6.24,6.27,6.26,2.53,0,3.56-.7,3.53-3.4q-0.17-17.25,0-34.5c0-2.16-.64-2.75-2.75-2.7C257.43,371.59,251.55,371.5,245.68,371.5Z" transform="translate(-215.72 -361.69)"/><path class="cls-2" d="M356.56,371.5c9.12,0,18.23.08,27.35-.05,2.47,0,3.49.45,3.45,3.22-0.16,11.24-.13,22.48,0,33.72,0,2.68-.67,3.72-3.57,3.68-7.51-.11-7.51,0-7.51-7.64,0-6.37-.11-12.74.06-19.11,0.07-2.5-.45-3.46-3.21-3.4-6.6.15-6.6,0-6.6,6.68,0,6.49-.11,13,0.05,19.48,0.07,2.82-.59,4.06-3.72,4-6.08-.15-6.08,0-6.08-6.07,0-7-.06-14,0-21,0-2.05-.19-3.08-2.74-3.09-7.8,0-7.8-.16-7.8,7.74,0,6.24-.08,12.49,0,18.73,0,2.16-.35,3.13-2.82,3-5-.2-10-0.14-15,0-2,0-2.54-.6-2.53-2.55,0.08-11.61.11-23.23,0-34.84,0-2.36,1-2.56,2.89-2.55C338.07,371.54,347.32,371.5,356.56,371.5Z" transform="translate(-215.72 -361.69)"/><path class="cls-2" d="M296.45,371.5c5.61,0,11.23.09,16.84,0,2.15,0,3.05.33,3,2.8-0.14,11.48-.11,23,0,34.44,0,2.14-.65,2.77-2.75,2.71-4.86-.13-9.73.06-14.6-0.09-2.22-.07-3,0.48-3,2.87,0,7.56-.16,7.58-7.83,7.54-3.72,0-8.72,1.27-10.83-.61-2.42-2.17-.72-7.26-0.75-11.08-0.09-11.73.08-23.46-.11-35.18,0-2.91.85-3.53,3.56-3.43C285.46,371.65,291,371.5,296.45,371.5Zm-0.15,20.23c0,10.33,0,10.29,8,9.81,1.53-.09,2.23-0.39,2.2-2.09q-0.14-7.68,0-15.36c0-1.66-.59-2-2.16-2.13-8.07-.5-8.07-0.55-8.07,7.53Q296.3,390.61,296.3,391.73Z" transform="translate(-215.72 -361.69)"/><path class="cls-2" d="M245.68,371.5c5.87,0,11.75.09,17.62,0,2.1,0,2.77.54,2.75,2.7q-0.15,17.25,0,34.5c0,2.7-1,3.4-3.53,3.4-6.27,0-6.27.09-6.27-6.26,0-6.87-.08-13.75,0-20.62,0-2.26-.31-3.27-3-3.25-7.26.07-7.26-.07-7.27,7.24,0,6.5-.08,13,0,19.5,0,2.15-.68,2.79-2.79,2.74q-7.68-.19-15.37,0c-2.07.05-2.48-.73-2.47-2.61q0.11-17.44,0-34.87c0-2.06.72-2.49,2.6-2.46C233.93,371.56,239.8,371.5,245.68,371.5Z" transform="translate(-215.72 -361.69)"/><path class="cls-1" d="M296.3,391.73q0-1.12,0-2.25c0-8.08,0-8,8.07-7.53,1.58,0.1,2.19.47,2.16,2.13q-0.13,7.68,0,15.36c0,1.7-.67,2-2.2,2.09C296.3,402,296.3,402.07,296.3,391.73Z" transform="translate(-215.72 -361.69)"/></svg>